<?xml version="1.0" encoding="utf-8"?>
<!-- Generator: Adobe Illustrator 22.1.0, SVG Export Plug-In . SVG Version: 6.00 Build 0)  -->
<svg version="1.1" id="Layer_1" xmlns="http://www.w3.org/2000/svg" xmlns:xlink="http://www.w3.org/1999/xlink" x="0px" y="0px"
	 viewBox="0 0 1000 1000" style="enable-background:new 0 0 1000 1000;" xml:space="preserve">
<style type="text/css">
	.st0{fill:#FFFFFF;}
</style>
<g>
	<g>
		<path class="st0" d="M443.1,508c-1.5-0.6-6,4.9-4.4,7.6c0.8,1.4,2.6-0.4,4.1-1.3c2.7-1.6,3.4-1.2,3.6-2.4
			C446.7,510.1,445,508.8,443.1,508z"/>
	</g>
	<g>
		<path class="st0" d="M619.4,500.2c-3.6,2.5-6.5,5.8-7.7,10.2c-0.6,2-2.3,8.3,0.7,8.9c8.7,1.7,4.7-10.2,5-11.2
			C617.9,506.7,621.9,500.2,619.4,500.2z"/>
	</g>
	<g>
		<path class="st0" d="M0,0v1000h1000V0H0z M431.8,484.9c1.6-1.1,4.4-1.8,6.9-1.1c1.6,0.4,2,1.5,0.4,2.1c-4.9,2-2.4,5.4-6.8,4.9
			C429.1,490.5,429.7,486.4,431.8,484.9z M378,516.9c-4.5,4.1-11,14.2-21,17.1c-11.4,3.2-16.6-6.1-17-15.3
			c-0.5-10.5,4.7-21.5,9.3-30.7c2.5-4.9,12.7-20.3,21.9-21.6c18.6-2.7,8.1,31.8-3.5,27.8c-2.5-0.9-4.5-3-3.2-5.5
			c0.8-1.5,3.3-2.1,5-2.9c5.7-2.7,7.3-11.4,4.8-12.3c-5.6-2-13.5,8.6-17.4,15.7c-4.6,8.4-12.5,29.1-6.2,34.3
			c5.2,4.2,11.6,2.3,21.1-5.2C377,514.3,379.7,515.4,378,516.9z M429.5,526.4c-2.8,1.1-2.3-3.3-3.7-2.3c-1.4,1-3.1,3.2-5.9,3.2
			c-2.8,0-5.4-5.6-7-12.8s-4.7,5.2-5.4,6.7c-1.3,2.7-3.2,6.2-6.7,6.1c-3.3-0.1-4.6-3.1-5.1-5.9c-0.6-3.1,0.6-8.8-0.9-14.1
			c-1.4-4.8-5.7,3.5-6.9,10.3c-0.8,4.4-3,8.1-5.9,8c-1.7-0.1-2-2.5-2.2-3.9c-0.6-3.9,5.6-16.6,2.1-15.6c-2.4,0.7-3.3,3.1-6.8,6.3
			c-1.3,1.2-5.1,1.5-6.3-0.4c-0.7-1.1,0.2-2.1,2.6-3.9c4.6-3.6,13.4-5.9,15.9-22.8c0.8-4.9-0.2-15.1,4.7-19.4
			c3.6-3.2,7.6,3.1,6.1,9.3c-2.3,9.5-6.3,14.4-9.1,26.4c0.8-0.8,3.8-5.7,7.9-5.6c4.5,0.1,4.2,7.6,4.2,10.6c0,2.6-0.1,5.2-0.1,7.8
			c0,1,0,2.1,0.2,3.1c0,0.3,0.1,2.1,1.8,1.2c2.4-1.2,3.7-13.7,5-14.9c1.3-1.3,3-0.9,4.3-2.5c1.8-2.3,3.4-2.5,5.6-1.7
			c3.4,1.2,1.6,4.3,1.3,6.9c-0.4,3.6-1.6,10.1,1.6,13.1c2.2,2.2,3.6-1.1,3.7-2.4c0.2-3.5-0.5-7.9,1.4-15.3c1.1-4.2,2.7-5.5,4.5-5.6
			c2.3-0.1,2.6,2.2,2.9,3.4c0.7,3.3-1.7,6.7-2.3,9.8c-0.4,1.9-1.1,3.7-1.4,10C429.2,522.9,431.4,525.6,429.5,526.4z M588.1,521.4
			c-0.4-2.2-0.2-4-2.5-1.7c-2,2.1-4.3,3.9-6.4,5.9c-1.6,1.5-3.1,2.2-5.3,2.3c-2.4,0.1-3.5-1.3-5.4-2.4c-2.4-1.5-3.3-0.1-5,1.7
			c-1.6,1.5-3.4,2.8-5.6,1.8c-1.7-0.7-2.9-2.4-3.5-4.1c-0.5-1.1-0.7-4.4-1.9-4.9c-1.1-0.5-2.2,1.5-3.1,2.4c-1.5,1.5-2.9,3.2-4.7,4.2
			c-12.8,6.6-17.8-3.2-19.6-8.2c-0.9-2.5-1.6-1.4-2.5,0.6c-0.8,1.9-1.4,4.1-2.7,5.7c-2.5,3.2-7.1,3.6-10.4,1.3
			c-3.1-2.2-5-6.1-6.2-9.5c-0.6-1.8-0.4-5.4-1.4-6.9c-1.6-2.4-2.9,1.4-3.3,3c-0.9,3.4-3.4,10.4-8.2,9.7c-3.6-0.5-4.7-5.8-5.4-8.6
			c-0.4-1.7-0.8-3.4-1-5.2c-0.2-1.5,0-3.5-0.9-4.9c-1.5-2.4-2.4-0.1-3.1,1.6c-1.1,2.6-2.8,7.5-3.1,11.5c1.4,0.4,5.2,3.1,6.8,4
			c3.8,2.2,7,4.9,9.8,8.3c0.6,0.8,2.3,2.4,1.8,3.5c-1,1.9-4.3-1.4-5.3-2c-4-2.6-9.4-6.3-14-7.6c-0.2,2.3-1.3,3.3-3.8,3.5
			c-2.3,0.2-4-2.8-3.5-5.2c-1.9-1.9-9-2.6-12.5-1.8c-1.9,0.4-3.8,0.6-5.2,1.9c-1.8,1.6-3.3,3.7-5.4,4.8c-2.1,1.1-6.8,1.2-9.6,1.3
			c-2.9,0.1-3-5-3-7.2c0-4,2.6-9.2,3.8-14c1.1-4.6-0.8-12.2,6.3-9.1c3.5,1.5,6.2,7.5,7.2,10.5c0.7,2.1,1.1,3.7,3.5,3.7
			c9.3,0.1,13,1.5,15.7,2.3c1.6-7.7,12.6-42.3,15.3-43.3c2.8-0.9,2.7,1.2,3,3c0.8,5.3,1.1,32.2,2.3,36.1c1.2,3.8,1.6,3,2.7,0.7
			c1.1-2.3,12.7-38.6,15.7-40.5c2.9-1.9,3.6-0.8,4.4,1.1c0.8,1.8-4.2,14.8-5.2,23.4c-1,8.6,0.3,22.3,3.1,25.4c1.1,1.2,3,2.2,4.6,1.7
			c2.1-0.7,2.5-3.5,3.2-5.3c0.6-1.6,1.6-3.8,0.9-5.6c-0.6-1.8-8.3-4.1-4.7-19.2c1.5-6.3,4.1-9.1,6.3-10.2c6-2.8,10.2-0.7,7.2,4.8
			c-3.5,6.4-2.1-3.1-6.5,1.9c-3.2,3.6-2.7,9.1-2.2,13.3c0.4,3.8,4.8,4.1,5.8-0.7c3.7-17.8,17.2-36.9,25.5-27.6
			c3.7,4.2,2.8,11.2,1.3,16.2c-0.6,2.2-4.8,13.2-8.6,7.2c-1.8-2.8,4.3-7.8,4.8-13.6c0.4-3.9-1.8-6.1-5.6-2.2
			c-14.5,14.6-13.6,36.9-9.4,40.3c4.3,3.5,10.9,3.5,17.8-9.4c2.5-4.6,2.4-11.5,3.8-16.5c0.7-2.6,2.7-14,7.5-13
			c4.1,0.8-1.1,10.8-2.1,14.8c-1.3,5.5-2.3,11.3-2.4,17c0,1.9-0.4,6.7,1.3,7.9c1.5,1.1,3-0.3,4-1.5c1.5-1.8,1.6-3.1,1.9-5.4
			c0.4-2.9,2.4-12.8,10.4-15.8c6.2-2.3,8.2,3.9,7.4,7.2c-1.2,4.6-4.9,7.1-9,9.4c-4.1,2.3-3.3,4.5-1.6,6.1c1.5,1.4,4.6,0.2,6-0.7
			c3.3-2,6-5.8,8.1-9c2.1-3.2,2.6-14.8,3.3-24.5c0.5-8,2.3-22,6-22.2c5.6-0.3,3.1,6.2,2.4,9.4c-1.6,7.6-5.4,29.2-3.8,45.1
			C595.4,527,589.4,529.1,588.1,521.4z M603.2,528.6c-6.7,5.7-5.4-14.3-5.3-19.6c0.3-13.5,1.8-31.4,8.1-31.3
			c5.2,0.1-2.4,13.7-2.8,31.3C603.1,516,605,527.1,603.2,528.6z M657.6,528.7c-5.1-0.4-6.6-11.4-6.9-15c-0.1-1.4,0.5-10.9-2.5-8.7
			c-1.5,1.1-4.1,9.8-5.1,13.8c-0.9,3.8,0.7,7.5-3.4,8.9c-5.4,1.9-3.8-2.6-6.2-5.3c-2.2-2.5-1.9,0.8-4.7,2.8
			c-2.1,1.5-3.1,3.4-6.1,2.8c-2.1-0.4-3.3-2.5-5.4-3c-2.6-0.5-4.1,1.4-6.8-0.6c-10-7.4,0.4-28.9,8.4-31.5c4.4-1.4,6.9,4.2,7.9,8.1
			c1.4,5.5-2.6,9.6-2.2,14.9c0.7,10,7.1-11,8.5-12.9c4.6-5.9,5.9-0.8,5.2,3.9c-0.3,2.3-1.9,6.2-0.9,5.8c3.5-1.5,7.4-22.4,14.6-16.9
			c4,3,3.2,11.7,4,16.2C656.7,515,663.5,529.1,657.6,528.7z"/>
	</g>
</g>
</svg>
