<?xml version="1.0" encoding="utf-8"?>
<!-- Generator: Adobe Illustrator 22.1.0, SVG Export Plug-In . SVG Version: 6.00 Build 0)  -->
<svg version="1.1" id="Layer_1" xmlns="http://www.w3.org/2000/svg" xmlns:xlink="http://www.w3.org/1999/xlink" x="0px" y="0px"
	 viewBox="0 0 151.3 12.8" style="enable-background:new 0 0 151.3 12.8;" xml:space="preserve">
<style type="text/css">
	.st0{fill:#69869F;}
</style>
<g>
	<g>
		<path class="st0" d="M10.2,11.7c-0.2,0-0.4,0-0.5,0c-0.2,0-0.4,0-0.6-0.1c-0.2-0.1-0.3-0.2-0.5-0.4L4.8,6.2l4.2-4l1.4-0.3V1.4H6.8
			v0.6L8,2.2L3.5,6.7H2.9V3.1c0-0.4,0.1-0.6,0.3-0.8C3.4,2.1,3.8,2,4.5,2l0.1-0.1L4.5,1.4H0V2C0.5,2,0.9,2,1.1,2.2
			c0.2,0.2,0.3,0.5,0.3,0.8v7.7c0,0.4-0.1,0.7-0.3,0.8C0.9,11.9,0.5,12,0,12v0.6h4.5l0.1-0.5L4.5,12c-0.3,0-0.6,0-0.8-0.1
			c-0.2,0-0.4-0.1-0.5-0.2C3.1,11.6,3,11.5,3,11.3c0-0.1-0.1-0.3-0.1-0.5V7.3c0.3,0,0.6,0,0.7,0.1c0.1,0.1,0.2,0.2,0.3,0.3l3,4.1
			c0.2,0.3,0.5,0.5,0.8,0.7c0.3,0.2,0.6,0.3,1,0.3c0.4,0,0.8-0.1,1.2-0.2c0.3-0.2,0.6-0.4,0.9-0.6l0.1-0.3l-0.1-0.1
			C10.6,11.6,10.4,11.6,10.2,11.7z M21.9,11.7c-0.1,0-0.3,0-0.4,0c-0.2,0-0.4-0.1-0.6-0.2c-0.2-0.1-0.3-0.3-0.5-0.5
			c-0.1-0.2-0.3-0.5-0.4-0.8c-0.1-0.3-0.3-0.6-0.4-0.9c-0.1-0.3-0.2-0.5-0.3-0.7c-0.1-0.2-0.3-0.4-0.4-0.6c-0.2-0.2-0.4-0.3-0.6-0.4
			c-0.2-0.1-0.4-0.2-0.7-0.2V7.2c0.5-0.1,1-0.3,1.3-0.5c0.3-0.2,0.6-0.4,0.8-0.7c0.2-0.3,0.4-0.5,0.4-0.8c0.1-0.3,0.1-0.6,0.1-0.8
			c0-0.4,0-0.7-0.1-1.1c-0.1-0.4-0.3-0.7-0.5-1c-0.3-0.3-0.6-0.5-1.1-0.7c-0.5-0.2-1.1-0.3-1.9-0.3h-4.4V2C12.6,2,13,2,13.2,2.2
			c0.2,0.2,0.3,0.5,0.3,0.8v7.8c0,0.4-0.1,0.7-0.3,0.8C13,11.9,12.6,12,12.1,12v0.6h4.5l0.1-0.5L16.6,12c-0.3,0-0.6,0-0.8-0.1
			c-0.2,0-0.4-0.1-0.5-0.2c-0.1-0.1-0.2-0.2-0.2-0.4c0-0.1-0.1-0.3-0.1-0.5V7.5c0.5,0,0.9,0,1.2,0.1c0.3,0.1,0.5,0.2,0.7,0.4
			c0.4,0.3,0.6,0.7,0.8,1.1c0.2,0.4,0.4,0.9,0.5,1.3c0.1,0.3,0.2,0.6,0.3,0.9c0.1,0.3,0.3,0.5,0.4,0.8c0.2,0.2,0.4,0.4,0.6,0.5
			c0.2,0.1,0.5,0.2,0.9,0.2c0.3,0,0.6-0.1,0.9-0.2c0.3-0.1,0.6-0.3,0.8-0.6l0.1-0.3l-0.1-0.1C22.1,11.6,22,11.7,21.9,11.7z
			 M15.6,6.8h-0.3c-0.1,0-0.2,0-0.3,0V3.1c0-0.4,0.1-0.6,0.3-0.8C15.5,2.1,15.9,2,16.4,2c0.4,0,0.8,0.1,1.1,0.2
			c0.3,0.1,0.6,0.3,0.7,0.5c0.2,0.2,0.3,0.4,0.4,0.7c0.1,0.3,0.1,0.5,0.1,0.8c0,0.4-0.1,0.8-0.2,1.1c-0.1,0.3-0.3,0.6-0.5,0.9
			c-0.3,0.2-0.6,0.4-1,0.6C16.7,6.7,16.2,6.8,15.6,6.8z M26.9,2.2C27.1,2,27.5,2,28.1,2l0.1-0.1l-0.1-0.5h-4.4V2
			c0.5,0,0.9,0.1,1.1,0.3c0.2,0.2,0.3,0.5,0.3,0.8v7.7c0,0.4-0.1,0.7-0.3,0.8c-0.2,0.2-0.6,0.3-1.1,0.3v0.6h4.4l0.1-0.5L28.1,12
			c-0.6,0-1-0.1-1.2-0.3c-0.2-0.2-0.3-0.5-0.3-0.8V3.1C26.6,2.7,26.7,2.4,26.9,2.2z M35.7,7c-0.4-0.3-0.9-0.5-1.4-0.7
			c-0.5-0.2-1-0.4-1.4-0.7c-0.4-0.2-0.8-0.5-1.1-0.8c-0.3-0.3-0.4-0.7-0.4-1.2c0-0.3,0.1-0.6,0.2-0.8c0.1-0.2,0.3-0.4,0.5-0.5
			c0.2-0.1,0.4-0.2,0.7-0.3c0.3-0.1,0.5-0.1,0.8-0.1c0.4,0,0.8,0.1,1.1,0.2c0.3,0.1,0.5,0.3,0.7,0.5c0.2,0.2,0.3,0.4,0.4,0.7
			c0.1,0.2,0.1,0.5,0.1,0.7h0.3l0.1-0.1l0.6-2.5l-0.2-0.1c-0.1,0.1-0.1,0.1-0.2,0.1c-0.1,0-0.2,0-0.3,0.1c-0.1,0-0.2,0-0.3,0h-0.2
			c-0.1,0-0.2,0-0.3,0c-0.2,0-0.4,0-0.6-0.1c-0.2,0-0.4-0.1-0.7-0.1c-0.2,0-0.4,0-0.6,0c-0.4,0-0.8,0.1-1.2,0.2
			c-0.4,0.1-0.8,0.3-1.1,0.6c-0.3,0.3-0.6,0.6-0.8,0.9C30.1,3.2,30,3.6,30,4.1c0,0.6,0.1,1.1,0.4,1.5c0.3,0.4,0.6,0.8,1.1,1
			c0.4,0.3,0.9,0.5,1.4,0.8c0.5,0.2,1,0.4,1.4,0.7c0.4,0.2,0.8,0.5,1.1,0.8c0.3,0.3,0.4,0.7,0.4,1.2c0,0.4-0.1,0.7-0.2,0.9
			c-0.1,0.2-0.3,0.4-0.5,0.6c-0.2,0.2-0.5,0.3-0.8,0.3c-0.3,0.1-0.6,0.1-1,0.1c-0.4,0-0.7-0.1-1-0.2c-0.3-0.1-0.6-0.3-0.9-0.5
			c-0.3-0.2-0.5-0.5-0.7-0.9c-0.2-0.3-0.3-0.7-0.3-1.2l-0.6,0l-0.2,0.1l0.2,2.4c0.4,0.2,0.8,0.4,1.2,0.5c0.4,0.1,0.7,0.2,1.1,0.2
			c0.3,0,0.6,0.1,0.8,0.1c0.2,0,0.4,0,0.5,0c0.5,0,0.9-0.1,1.4-0.2s0.8-0.4,1.2-0.7c0.4-0.3,0.6-0.6,0.9-1c0.2-0.4,0.3-0.9,0.3-1.4
			c0-0.6-0.1-1.1-0.4-1.5C36.5,7.6,36.1,7.3,35.7,7z M57.5,11.7c-0.2-0.2-0.3-0.5-0.3-0.9V7.1c0-0.8-0.2-1.5-0.7-2
			c-0.4-0.5-1.1-0.7-2-0.7c-0.7,0-1.2,0.1-1.7,0.4C52.4,5.1,52,5.5,51.7,6c-0.2-0.5-0.5-0.9-0.9-1.2c-0.4-0.3-0.9-0.4-1.6-0.4
			c-0.5,0-1,0.1-1.5,0.4C47.4,5,47,5.5,46.8,6h-0.1V4.5l-0.1-0.1l-2.6,0.9v0.4L45.3,6v4.8c0,0.4-0.1,0.7-0.3,0.9
			c-0.2,0.2-0.5,0.3-1.1,0.3v0.6h4.1l0.1-0.4L48.1,12c-0.5,0-0.9-0.1-1.1-0.3c-0.2-0.2-0.3-0.5-0.3-0.9V6.6C46.8,6.4,47,6.2,47.2,6
			c0.2-0.2,0.4-0.3,0.6-0.4c0.2-0.1,0.4-0.2,0.5-0.2c0.2,0,0.3,0,0.4,0c0.4,0,0.7,0.1,0.9,0.2C49.8,5.7,50,5.8,50.1,6
			c0.1,0.2,0.2,0.4,0.3,0.6c0.1,0.2,0.1,0.5,0.1,0.8v3.4c0,0.4-0.1,0.7-0.2,0.9c-0.2,0.2-0.5,0.3-0.9,0.3v0.6h3.9l0.1-0.4L53.3,12
			c-0.5,0-0.9-0.1-1.1-0.3c-0.2-0.2-0.3-0.5-0.3-0.9V7.1c0-0.1,0-0.2,0-0.3c0-0.1,0-0.2,0-0.3C52,6.2,52.2,6,52.4,5.9
			c0.2-0.1,0.4-0.2,0.6-0.3c0.2-0.1,0.4-0.1,0.6-0.2c0.2,0,0.3,0,0.4,0c0.4,0,0.7,0.1,0.9,0.2C55,5.7,55.2,5.8,55.4,6
			c0.1,0.2,0.2,0.4,0.3,0.6c0.1,0.2,0.1,0.5,0.1,0.8v3.4c0,0.4-0.1,0.7-0.2,0.9C55.3,11.9,55,12,54.6,12v0.6h3.9l0.1-0.4L58.5,12
			C58,12,57.7,11.9,57.5,11.7z M67.4,4.6h-0.3L64.6,5l-0.1,0.5l0.1,0.1c0.5,0,0.9,0.1,1.1,0.2C65.9,5.9,66,6.2,66,6.6v3.8
			c-0.1,0.3-0.3,0.5-0.5,0.7c-0.2,0.2-0.3,0.3-0.5,0.4c-0.2,0.1-0.4,0.2-0.6,0.2c-0.2,0-0.4,0.1-0.5,0.1c-0.4,0-0.7-0.1-0.9-0.2
			c-0.2-0.1-0.4-0.3-0.6-0.4c-0.1-0.2-0.2-0.4-0.3-0.6c-0.1-0.2-0.1-0.5-0.1-0.8V4.6h-0.3l-2.5,0.4l-0.1,0.5l0.1,0.1
			c0.5,0,0.9,0.1,1.1,0.2c0.2,0.1,0.3,0.4,0.3,0.8V10c0,0.8,0.2,1.5,0.7,2c0.4,0.5,1.1,0.7,2,0.7c1.2,0,2.1-0.5,2.6-1.5H66v1.4
			l0.1,0.1l2.6-0.9v-0.3l-1.3-0.3V4.6z M78.4,11.7c-0.2-0.2-0.3-0.5-0.3-0.9V7.1c0-0.8-0.2-1.5-0.7-2c-0.4-0.5-1.1-0.7-2-0.7
			c-0.6,0-1.1,0.1-1.5,0.4c-0.4,0.3-0.8,0.6-1.1,1.1h-0.1V0.1L72.7,0L70,0.9v0.4l1.3,0.3v9.3c0,0.4-0.1,0.7-0.3,0.9
			C70.9,11.9,70.6,12,70,12v0.6h4.1l0.1-0.4L74.2,12c-0.5,0-0.9-0.1-1.1-0.3c-0.2-0.2-0.3-0.5-0.3-0.9V6.7c0.1-0.3,0.3-0.5,0.5-0.6
			c0.2-0.2,0.4-0.3,0.5-0.4c0.2-0.1,0.4-0.2,0.6-0.2c0.2,0,0.3,0,0.5,0c0.4,0,0.7,0.1,0.9,0.2C76,5.7,76.2,5.8,76.3,6
			c0.1,0.2,0.2,0.4,0.3,0.6c0.1,0.2,0.1,0.5,0.1,0.8v3.4c0,0.4-0.1,0.7-0.2,0.9C76.3,11.9,76,12,75.5,12v0.6h3.9l0.1-0.4L79.4,12
			C78.9,12,78.6,11.9,78.4,11.7z M81.1,8.8h5.1V7.9h-5.1V8.8z M98.2,11.7c-0.2,0-0.4,0-0.5,0c-0.2,0-0.4,0-0.6-0.1
			c-0.2-0.1-0.3-0.2-0.5-0.4l-3.9-5.1l4.2-4l1.4-0.3V1.4h-3.6v0.6l1.2,0.3l-4.5,4.5h-0.6V3.1c0-0.4,0.1-0.6,0.3-0.8
			C91.4,2.1,91.9,2,92.5,2l0.1-0.1l-0.1-0.5H88V2c0.5,0,0.9,0.1,1.1,0.3c0.2,0.2,0.3,0.5,0.3,0.8v7.7c0,0.4-0.1,0.7-0.3,0.8
			C88.9,11.9,88.6,12,88,12v0.6h4.5l0.1-0.5L92.5,12c-0.3,0-0.6,0-0.8-0.1c-0.2,0-0.4-0.1-0.5-0.2c-0.1-0.1-0.2-0.2-0.2-0.4
			c0-0.1-0.1-0.3-0.1-0.5V7.3c0.3,0,0.6,0,0.7,0.1c0.1,0.1,0.2,0.2,0.3,0.3l3,4.1c0.2,0.3,0.5,0.5,0.8,0.7c0.3,0.2,0.6,0.3,1,0.3
			c0.4,0,0.8-0.1,1.2-0.2c0.3-0.2,0.6-0.4,0.9-0.6l0.1-0.3l-0.1-0.1C98.6,11.6,98.4,11.6,98.2,11.7z M108.6,10
			c-0.2,0.4-0.4,0.8-0.7,1c-0.3,0.3-0.5,0.5-0.8,0.6c-0.3,0.1-0.5,0.2-0.8,0.3c-0.3,0-0.5,0.1-0.6,0.1h-1.4c-0.5,0-0.8-0.1-1-0.3
			c-0.2-0.2-0.2-0.5-0.2-0.8V3.1c0-0.4,0.1-0.6,0.3-0.8c0.2-0.2,0.6-0.3,1.2-0.3l0.1-0.1l-0.1-0.5h-4.5V2c0.5,0,0.9,0.1,1.1,0.3
			c0.2,0.2,0.3,0.5,0.3,0.8v7.7c0,0.4-0.1,0.7-0.3,0.8c-0.2,0.2-0.6,0.3-1.1,0.3v0.6h8.1l0.6-2.4l-0.1-0.1L108.6,10z M119.2,10
			c-0.2,0.4-0.4,0.8-0.7,1c-0.3,0.3-0.5,0.5-0.8,0.6c-0.3,0.1-0.5,0.2-0.8,0.3c-0.3,0-0.5,0.1-0.7,0.1h-1.6c-0.5,0-0.8-0.1-1-0.3
			c-0.2-0.2-0.3-0.5-0.3-0.8V7.2h2.2c0.4,0,0.7,0.1,0.9,0.3c0.2,0.2,0.3,0.6,0.3,1.2l0.1,0.1l0.4-0.1V4.9h-0.5c0,0.4,0,0.6-0.1,0.9
			c0,0.2-0.1,0.4-0.2,0.5c-0.1,0.1-0.2,0.2-0.4,0.3c-0.1,0-0.3,0.1-0.5,0.1h-2.2V3.1c0-0.4,0.1-0.6,0.3-0.8c0.2-0.2,0.6-0.3,1.1-0.3
			h0.9c0.7,0,1.2,0.2,1.5,0.5c0.4,0.3,0.6,0.8,0.6,1.5h0.2l0.1-0.1l0.6-2.4l-0.2-0.1h-8.1V2c0.5,0,0.9,0.1,1.1,0.3
			c0.2,0.2,0.3,0.5,0.3,0.8v7.7c0,0.4-0.1,0.7-0.3,0.8c-0.2,0.2-0.6,0.3-1.1,0.3v0.6h8.3l0.6-2.4l-0.1-0.1L119.2,10z M121.3,8.8h5.1
			V7.9h-5.1V8.8z M131,11.7c-0.2-0.2-0.3-0.5-0.3-0.9V0.1L130.6,0L128,0.9v0.4l1.3,0.3v9.3c0,0.4-0.1,0.7-0.3,0.9
			c-0.2,0.2-0.5,0.3-1.1,0.3v0.6h4.1l0.1-0.4l-0.1-0.1C131.6,12,131.2,11.9,131,11.7z M140.4,10.5c-0.3,0.3-0.6,0.6-1.1,0.8
			c-0.4,0.2-0.9,0.3-1.4,0.3c-0.2,0-0.5,0-0.9-0.1c-0.4-0.1-0.7-0.3-1-0.5s-0.6-0.6-0.8-1s-0.3-0.9-0.3-1.6c0-0.2,0-0.3,0-0.5
			c0-0.1,0-0.3,0-0.4h5.7c0-0.4-0.1-0.8-0.2-1.2c-0.1-0.4-0.3-0.7-0.6-1c-0.3-0.3-0.6-0.5-1-0.6c-0.4-0.2-0.9-0.2-1.5-0.2
			c-0.4,0-0.8,0.1-1.3,0.2c-0.5,0.2-0.9,0.4-1.3,0.8c-0.4,0.3-0.7,0.8-1,1.3s-0.4,1.2-0.4,2c0,0.7,0.1,1.3,0.3,1.9
			c0.2,0.5,0.5,0.9,0.9,1.3c0.4,0.3,0.8,0.6,1.2,0.7c0.5,0.2,1,0.2,1.5,0.2c0.7,0,1.4-0.2,2-0.5s1-0.9,1.3-1.6l-0.1-0.1L140.4,10.5z
			 M135.3,6c0.2-0.2,0.4-0.4,0.6-0.6c0.2-0.1,0.5-0.2,0.7-0.3c0.2-0.1,0.5-0.1,0.7-0.1c0.5,0,0.9,0.1,1.2,0.4
			c0.3,0.3,0.5,0.7,0.5,1.4h-4C135,6.5,135.2,6.2,135.3,6z M151.2,12c-0.5,0-0.8-0.1-1-0.3c-0.2-0.2-0.3-0.5-0.3-0.9V7.1
			c0-0.8-0.2-1.5-0.7-2c-0.4-0.5-1.1-0.7-2-0.7c-1.2,0-2,0.5-2.6,1.6h-0.1V4.5l-0.1-0.1l-2.6,0.9v0.4l1.3,0.3v4.8
			c0,0.4-0.1,0.7-0.3,0.9c-0.2,0.2-0.5,0.3-1.1,0.3v0.6h4.1l0.1-0.4L146,12c-0.5,0-0.9-0.1-1-0.3c-0.2-0.2-0.3-0.5-0.3-0.9V6.6
			c0.1-0.3,0.3-0.5,0.5-0.6c0.2-0.2,0.4-0.3,0.6-0.4c0.2-0.1,0.4-0.2,0.6-0.2c0.2,0,0.3,0,0.5,0c0.4,0,0.7,0.1,0.9,0.2
			c0.2,0.1,0.4,0.3,0.6,0.4c0.1,0.2,0.2,0.4,0.3,0.6c0.1,0.2,0.1,0.5,0.1,0.7v3.5c0,0.4-0.1,0.7-0.2,0.9c-0.2,0.2-0.5,0.3-0.9,0.3
			v0.6h3.9l0.1-0.4L151.2,12z"/>
	</g>
</g>
</svg>
