<?xml version="1.0" encoding="utf-8"?>
<!-- Generator: Adobe Illustrator 22.1.0, SVG Export Plug-In . SVG Version: 6.00 Build 0)  -->
<svg version="1.1" id="Layer_1" xmlns="http://www.w3.org/2000/svg" xmlns:xlink="http://www.w3.org/1999/xlink" x="0px" y="0px"
	 viewBox="0 0 1824.2 397" style="enable-background:new 0 0 1824.2 397;" xml:space="preserve">
<style type="text/css">
	.st0{fill-rule:evenodd;clip-rule:evenodd;fill:#0E1C28;}
</style>
<g>
	<g>
		<path class="st0" d="M517.5,254.1c3.5-17.9,17.2-37.4,13.2-56.1c-1.5-7-3.2-19.9-16.3-19.6c-10.3,0.3-19.6,7.8-25.9,31.7
			c-11,42-7,67-8.1,87.1c-0.4,7.4-8.1,26.1-20.9,13.8c-17.9-17.1-11.1-54.4-9-74.7c1.5-14.6,11.8-32.5-7.6-39.1
			c-12.5-4.2-21.4-3.2-31.9,9.8c-7.2,8.9-16.9,7-24.4,14.2c-7.1,6.9-15,77.7-28.4,84.8c-9.7,5.1-10.2-5.4-10.3-6.9
			c-0.7-5.8-0.8-11.7-0.9-17.5c-0.2-14.9,0.5-29.7,0.4-44.6c-0.1-16.8,1.7-59.9-23.9-60.4c-23-0.4-40,27.6-44.8,31.9
			c15.8-68.3,38.8-96.3,51.8-150.3c8.4-35.1-14-71-34.7-52.9c-27.9,24.5-22.6,82.4-26.9,110.5c-14.5,96.3-64.5,109.3-90.9,129.8
			c-13.7,10.7-18.6,16.5-14.6,22.5c7.2,10.8,28.7,8.9,36.1,2.2c19.9-18.2,24.9-32.2,38.5-36c19.9-5.6-15.6,66.8-12.1,89.1
			c1.2,7.7,3.3,21.7,12.8,22c16.7,0.6,28.9-20.4,33.6-45.6c7.2-38.8,31.6-86.5,39.5-58.9c8.7,30.1,1.7,62.9,5.4,80.3
			c3.3,15.9,10.4,33.2,29.3,33.8c20,0.6,30.8-19.2,38.4-34.7c4.2-8.5,21.6-79.3,30.8-38.2s24,72.7,40,72.8
			c15.8,0.1,25.8-12.9,33.7-18.4c7.9-5.5,5.1,19.5,20.9,13.3c11-4.3-1.8-19.9-0.8-38.9C511.3,275.4,515.4,264.7,517.5,254.1z
			 M1473.4,53.5c3.7-18,18.2-55-13.8-53.4c-21.2,1.1-31.2,81.1-34.3,126.6c-3.7,55.4-6.4,121.1-18.6,139.6
			c-11.9,18.1-27.6,39.6-46.2,51.2c-7.9,5-25.4,12.1-34.1,4.1c-9.9-9-14.1-21.4,9.1-34.5c23.8-13.5,44.7-27.2,51.5-53.7
			c4.9-18.8-6.7-54.3-42.1-41.3c-45.6,16.8-57.2,73.2-59.4,89.8c-1.7,13.2-2,20.6-10.8,30.8c-5.7,6.6-14.2,14.8-22.9,8.5
			c-9.9-7.1-7.7-34-7.6-45.1c0.3-32.3,6.3-65.5,13.6-96.8c5.4-23.2,34.9-79.7,11.8-84.5c-27.3-5.7-38.4,59.4-42.5,74.2
			c-8,28.5-7.9,67.5-21.9,94c-38.9,73.2-76.9,73.2-101.2,53.5c-24.2-19.6-29-146.6,53.4-229.9c21.4-21.7,33.8-9.6,31.8,12.8
			c-2.9,32.9-37.5,61.4-27.4,77.4c21.7,34.4,45.3-28.5,48.9-40.8c8.2-28.6,13.8-68.2-7.5-92.4c-46.8-53.3-123.8,55.7-145.1,157.2
			c-5.8,27.5-30.7,25.5-33.2,4.1c-2.8-23.9-5.9-55,12.5-75.6c25-28,17.1,25.9,36.9-10.6c17.1-31.4-6.9-43.4-40.9-27.4
			c-13,6.1-27.3,21.9-36.1,58c-20.9,86,23.2,99.3,26.6,109.4c3.5,10.2-1.9,22.6-5.4,32c-3.9,10.3-6.3,26-18.4,30
			c-9.2,3-19.9-2.5-26.2-9.5c-16-17.7-23.5-95.8-17.8-145c5.7-49.2,34.3-123,29.7-133.4c-4.9-11.1-8.5-17.4-25.3-6.3
			c-16.9,11.1-83.1,217.9-89.3,231c-6.2,13.1-8.8,17.9-15.6-4c-6.7-21.8-8.8-175.2-13.1-205.6c-1.5-10.4-1.1-22.5-17.1-17.2
			c-15.9,5.3-78.1,202.7-87.5,246.6c-15.5-4.9-36.5-12.9-89.6-13.2c-14.1-0.1-16.2-9.1-20.2-21.2c-5.8-17.4-21.1-51.5-41.2-60.1
			c-40.5-17.4-29.5,25.6-36,51.9c-6.7,27.1-21.6,56.7-21.6,79.6c0,12.7,0.6,41.5,17.1,41.2c16.1-0.3,43-1,54.9-7.2
			c11.9-6.2,20.7-18.3,30.8-27.3c8.4-7.5,18.9-8.5,29.8-10.9c20-4.4,60.5-0.6,71.4,10.3c-2.9,14,6.5,30.7,19.8,29.7
			c14.3-1.1,20.3-6.7,21.5-19.9c26.7,7.1,57.3,28.6,80,43.2c5.7,3.7,24.5,22.7,30,11.6c3.2-6.4-6.6-15.5-10.1-19.8
			c-16-19.1-34.2-34.7-56-47.1c-9.3-5.3-30.9-20.5-39-22.7c2-23,11.5-50.6,17.9-65.5c4.2-9.7,9.1-23.2,17.7-9.4
			c4.8,7.7,3.7,19.1,4.9,27.8c1.3,9.9,3.6,19.7,5.9,29.4c3.7,16.1,10.1,45.9,30.7,48.9c27.4,4,41.9-36.4,47-55.5
			c2.3-8.7,9.8-30.6,18.9-16.9c5.6,8.5,4.3,28.8,7.9,39.1c7,19.9,18.1,41.7,35.5,54.4c18.4,13.4,44.6,11.1,59.1-7.4
			c7.3-9.3,10.7-21.7,15.3-32.5c4.8-11.4,8.8-18.1,14-3.7c10.3,28.4,39.3,84.4,112,46.7c10.7-5.5,18.7-15.3,27-23.9
			c5-5.2,11.4-16.2,17.8-13.6c7,2.8,8.4,21.7,11,27.9c3.8,9.5,10.5,19,20.2,23.2c12.7,5.5,22.8-1.4,31.8-10.2
			c10-10,14.7-18.1,28.6-9.7c10.8,6.4,16.8,14.2,30.6,13.8c12.5-0.4,21.3-4.7,30.3-13c12.2-11.2,24.9-21.5,36.5-33.5
			c12.7-13.2,11.9-2.8,14,9.6c7.7,44.3,41.7,31.9,37.5-10.7C1442.4,220.1,1464.4,97.1,1473.4,53.5z M606.8,267.6
			c-1.2,7-4.9,4.2-20.4,13.6c-8.8,5.3-19,15-23.6,7.3c-9.2-15.3,16.1-46.9,24.8-43.2C598.7,249.9,608.5,257.4,606.8,267.6z
			 M182.4,303.5c-54,42.6-91,53.6-120.4,29.7c-36.2-29.4,8.7-147.5,35.1-195.5c22.3-40.6,67.3-101,99.3-89.6c14,5,5,55-27.6,70.2
			c-10,4.7-24.3,8-28.7,16.7c-7.1,14.1,4.1,26.4,18.4,31.4c65.9,22.8,125.9-174.2,20-158.6C126,15.5,67.6,103.3,53.5,131.1
			C26.9,183.7-2.4,246.2,0.2,306c2.2,52.5,31.9,105.7,96.8,87.3c56.8-16.1,93.7-74,119.5-97.2C226.4,287.1,211.1,280.9,182.4,303.5z
			 M1500.4,251.1c2-100.5,45.6-178.3,15.7-178.6c-35.7-0.4-44,101.6-45.9,178.4c-0.8,30.2-8.1,144.4,30.1,111.8
			C1510.6,353.9,1499.6,290.8,1500.4,251.1z M526.6,147.1c25.1,2.4,10.7-17,38.5-28.2c8.7-3.5,6.5-9.6-2.5-11.9
			c-14.4-3.8-30-0.2-39.2,6.3C511.1,121.8,508,145.3,526.6,147.1z M1802,267.5c-4.6-25.4-0.3-75.1-22.9-92.2
			c-41.3-31.1-63.7,87.8-83.4,96.6c-5.5,2.4,3.4-19.9,5.2-32.9c3.9-26.9-3.4-56.2-29.6-22.5c-8.3,10.7-44.7,130.6-48.6,73.4
			c-2.1-30.5,20.9-53.6,12.7-85.1c-5.8-22.4-20.3-54.1-45.2-46.2c-45.9,14.5-104.9,137.5-48,179.5c15.5,11.4,24.2,0.3,39,3.4
			c11.9,2.4,19.1,14.5,30.9,16.9c17.2,3.5,22.7-6.9,34.9-15.7c15.9-11.5,14.4-30.2,26.9-15.9c13.7,15.7,4.6,41.2,35.1,30.4
			c22.9-8.1,14-28.9,19.1-50.8c5.3-22.4,20-72.1,28.8-78.5c17-12.5,13.4,41.5,14.2,49.5c2,20.7,10.5,83.6,39.5,85.7
			C1844.3,365.6,1805.2,284.8,1802,267.5z M1553.3,309.5c-17.2-3.4-7.4-39.6-4.2-50.9c6.9-24.6,23.4-43.7,43.8-57.9
			c14.3,0-8.4,37-10.9,44.8C1580.1,251.5,1602.9,319.3,1553.3,309.5z"/>
	</g>
</g>
</svg>
